<?xml version="1.0" standalone="no"?>
<!DOCTYPE svg PUBLIC "-//W3C//DTD SVG 20010904//EN"
 "http://www.w3.org/TR/2001/REC-SVG-20010904/DTD/svg10.dtd">
<svg version="1.0" xmlns="http://www.w3.org/2000/svg"
 width="1000.000000pt" height="1000.000000pt" viewBox="0 0 1000.000000 1000.000000"
 preserveAspectRatio="xMidYMid meet">

<g transform="translate(0.000000,1000.000000) scale(0.100000,-0.100000)"
fill="#000000" stroke="none">
<path d="M1750 7669 c0 -3 36 -41 81 -83 70 -67 82 -76 97 -64 10 8 13 9 9 1
-5 -8 0 -11 15 -11 38 2 48 17 48 74 l0 53 -40 11 c-51 14 -210 28 -210 19z"/>
<path d="M2144 7488 c-3 -4 7 -7 22 -6 15 2 29 -2 31 -9 2 -6 14 -9 26 -6 18
4 19 3 7 -6 -13 -9 -13 -11 3 -11 12 0 17 8 17 25 0 24 -3 25 -51 23 -28 -2
-53 -6 -55 -10z"/>
<path d="M2580 7498 c0 -4 17 -39 39 -80 21 -40 47 -95 56 -121 16 -42 21 -48
44 -45 22 3 26 7 23 33 -1 17 -2 37 -3 46 0 15 -159 181 -159 167z m141 -145
c13 -16 12 -17 -3 -4 -10 7 -18 15 -18 17 0 8 8 3 21 -13z"/>
<path d="M2756 7242 c-3 -4 -5 -51 -6 -103 -2 -150 -5 -139 36 -139 27 0 37 5
41 20 7 25 28 26 43 3 8 -12 10 -13 7 -3 -2 8 -12 42 -22 75 -9 33 -25 74 -35
90 -10 17 -19 35 -20 40 -1 6 -6 9 -11 8 -5 -2 -9 2 -9 7 0 12 -17 13 -24 2z
m74 -174 c0 -5 -9 -8 -19 -8 -13 0 -19 6 -18 19 1 15 4 17 19 7 10 -6 18 -14
18 -18z"/>
<path d="M2810 6743 c0 -5 4 -13 8 -20 6 -9 11 -7 20 7 11 17 10 20 -8 20 -11
0 -20 -3 -20 -7z"/>
<path d="M3250 6581 c0 -39 3 -72 8 -75 4 -2 54 -1 110 2 58 4 102 3 102 -2 0
-4 7 -3 15 4 10 9 15 32 15 76 l0 64 -125 0 -125 0 0 -69z"/>
<path d="M3750 6581 c0 -73 5 -81 56 -81 28 0 29 3 9 34 -14 21 -14 24 1 30
10 4 24 0 34 -9 16 -15 21 -14 51 4 33 20 55 19 43 -2 -5 -9 -4 -9 6 0 8 8 19
9 29 3 14 -7 17 -1 19 41 l2 49 -125 0 -125 0 0 -69z"/>
<path d="M4250 6581 l0 -70 33 -3 c17 -2 73 -1 122 2 l90 5 3 68 3 67 -126 0
-125 0 0 -69z"/>
<path d="M4750 6580 l0 -70 123 0 124 0 2 70 2 70 -125 0 -126 0 0 -70z"/>
<path d="M5250 6586 c0 -36 4 -68 10 -71 14 -9 219 -11 214 -3 -3 4 2 5 10 2
14 -5 16 5 16 65 l0 71 -125 0 -125 0 0 -64z"/>
<path d="M5750 6611 c0 -48 12 -57 51 -41 16 7 33 9 37 5 10 -10 -46 -55 -69
-55 -11 0 -17 -5 -14 -10 4 -6 25 -9 48 -6 23 3 77 5 120 5 l77 1 0 70 0 70
-125 0 -125 0 0 -39z"/>
<path d="M6250 6581 l0 -70 33 -3 c17 -2 73 -1 122 2 l90 5 3 68 3 67 -126 0
-125 0 0 -69z"/>
<path d="M6750 6580 l0 -70 123 0 124 0 2 70 2 70 -125 0 -126 0 0 -70z"/>
<path d="M7252 6578 c3 -65 5 -73 23 -73 13 0 21 8 23 21 5 32 36 56 69 52 15
-2 27 -8 26 -15 -2 -8 4 -10 15 -6 16 7 16 5 -1 -21 -22 -34 -15 -46 13 -21
11 10 20 13 20 8 0 -14 26 -24 45 -17 11 5 15 23 15 75 l0 69 -125 0 -126 0 3
-72z"/>
<path d="M7750 6581 l0 -71 88 -1 c48 -1 103 -2 122 -3 28 -1 36 3 38 20 6 43
-105 112 -194 121 l-54 6 0 -72z"/>
<path d="M8279 6570 c30 -64 46 -77 87 -68 10 2 -7 24 -51 68 l-66 65 30 -65z"/>
<path d="M7353 6563 c4 -3 -1 -11 -10 -18 -9 -7 -13 -17 -9 -24 10 -15 32 1
39 29 3 14 0 20 -11 20 -8 0 -12 -3 -9 -7z"/>
<path d="M2989 6523 c-11 -13 -11 -17 -1 -20 9 -4 12 -38 12 -129 l0 -124 -35
0 c-19 0 -35 -2 -35 -5 0 -20 54 -232 61 -239 5 -6 9 -21 9 -35 0 -14 10 -70
22 -123 l22 -98 52 0 c29 0 55 4 58 8 6 10 -32 179 -48 212 -10 21 -20 26 -59
28 l-47 3 0 125 c0 122 0 124 23 124 45 0 63 12 80 51 9 21 17 43 17 47 0 5
11 14 25 20 14 7 29 20 32 29 4 10 22 33 41 52 46 45 34 51 -107 51 -108 0
-113 1 -108 20 6 24 4 25 -14 3z"/>
<path d="M3905 6530 c-11 -17 5 -30 36 -30 27 0 29 2 19 20 -11 21 -44 27 -55
10z"/>
<path d="M3710 6490 c-12 -8 -10 -10 8 -10 13 0 20 4 17 10 -7 12 -6 12 -25 0z"/>
<path d="M4010 6491 c0 -17 19 -22 37 -12 10 6 16 11 13 11 -38 8 -50 8 -50 1z"/>
<path d="M4070 6489 c0 -5 9 -9 20 -9 11 0 20 2 20 4 0 2 -9 6 -20 9 -11 3
-20 1 -20 -4z"/>
<path d="M5525 6490 c-17 -7 -14 -9 13 -9 20 -1 31 3 27 9 -7 12 -13 12 -40 0z"/>
<path d="M5620 6489 c0 -5 5 -7 10 -4 6 3 10 8 10 11 0 2 -4 4 -10 4 -5 0 -10
-5 -10 -11z"/>
<path d="M7710 6490 c-9 -6 -10 -10 -3 -10 6 0 15 5 18 10 8 12 4 12 -15 0z"/>
<path d="M8014 6489 c1 -7 9 -13 18 -15 11 -1 15 3 11 13 -4 11 -8 12 -13 3
-6 -9 -9 -9 -13 -1 -4 8 -5 8 -3 0z"/>
<path d="M7128 6483 c23 -2 61 -2 85 0 23 2 4 4 -43 4 -47 0 -66 -2 -42 -4z"/>
<path d="M8312 6148 c-12 -57 -25 -113 -28 -125 -6 -22 -4 -23 74 -23 90 0
112 5 112 27 0 8 4 12 9 9 5 -3 9 41 10 98 2 119 5 116 -92 116 l-62 0 -23
-102z"/>
<path d="M8237 5825 c-5 -22 -11 -51 -14 -65 -5 -23 -4 -24 11 -9 13 12 16 29
14 65 l-3 49 -8 -40z"/>
<path d="M8250 5625 l0 -125 -44 0 c-34 0 -46 -4 -50 -17 -4 -17 -56 -233 -56
-236 0 -1 33 0 72 3 l73 5 3 123 3 122 38 0 c57 0 71 8 71 40 0 16 5 30 10 32
6 2 12 13 13 26 0 12 5 22 10 22 5 0 7 7 3 15 -3 8 0 15 5 15 6 0 9 9 6 20 -3
11 -2 18 3 15 4 -3 10 4 13 14 3 14 0 17 -14 14 -10 -3 -31 2 -48 10 -26 13
-30 13 -35 0 -8 -20 -7 -25 3 -19 4 3 17 -1 27 -9 17 -12 18 -15 3 -30 -14
-14 -17 -14 -33 3 -9 11 -19 32 -22 48 -3 23 -2 26 7 14 9 -13 10 -13 6 0 -2
8 -17 16 -35 17 l-32 3 0 -125z m70 4 c0 -6 -4 -7 -10 -4 -5 3 -10 0 -10 -8 0
-8 -6 -17 -14 -20 -17 -7 -15 15 3 37 13 16 31 13 31 -5z"/>
<path d="M3110 5489 c0 -6 12 -63 27 -126 l27 -114 40 3 41 3 -3 90 c-2 50 -8
96 -15 104 -9 12 -9 13 1 7 6 -4 12 -2 12 3 0 6 -6 11 -12 11 -10 0 -10 2 0 9
10 6 8 10 -10 14 -39 11 -108 8 -108 -4z"/>
<path d="M8301 5234 c0 -11 3 -14 6 -6 3 7 2 16 -1 19 -3 4 -6 -2 -5 -13z"/>
<path d="M3250 5121 c0 -90 -3 -120 -13 -123 -11 -2 -11 -11 -1 -48 l12 -45 1
48 c1 46 2 47 34 47 55 0 56 6 30 115 -14 55 -30 102 -35 104 -6 2 -4 7 3 12
10 6 8 9 -8 9 -23 0 -23 -2 -23 -119z"/>
<path d="M8251 5208 c1 -18 4 -46 8 -63 7 -29 7 -29 14 13 4 24 5 47 2 53 -4
5 -1 9 4 9 6 0 11 5 11 10 0 6 -9 10 -20 10 -16 0 -20 -6 -19 -32z"/>
<path d="M8021 4913 c-11 -49 -21 -104 -23 -123 -1 -19 -5 -37 -9 -40 -7 -5
-59 -216 -59 -239 0 -6 16 -11 35 -11 l35 0 0 -125 0 -125 -67 0 -68 0 -22
-73 c-41 -136 -159 -275 -282 -334 -55 -26 -60 -31 -60 -60 l-1 -33 -121 0
c-94 0 -124 3 -135 15 -12 12 -41 15 -130 15 -95 0 -114 -3 -114 -15 0 -13
-20 -15 -121 -15 -94 0 -124 3 -135 15 -12 12 -41 15 -130 15 -95 0 -114 -3
-114 -15 0 -22 -245 -22 -254 0 -4 12 -28 15 -126 15 -100 0 -120 -2 -120 -15
0 -13 -20 -15 -124 -15 -101 0 -125 3 -130 15 -4 12 -27 15 -121 15 -94 0
-117 -3 -121 -15 -5 -12 -29 -15 -129 -15 -100 0 -124 3 -129 15 -4 12 -28 15
-126 15 -100 0 -120 -2 -120 -15 0 -13 -21 -15 -125 -15 -99 0 -125 3 -125 14
0 11 -25 13 -125 12 -93 -1 -125 -4 -125 -13 0 -10 -31 -13 -124 -13 -101 0
-125 3 -130 15 -4 12 -28 15 -126 15 -100 0 -120 -2 -120 -15 0 -21 -245 -22
-253 -1 -4 9 -30 15 -84 18 -43 3 -97 12 -120 20 l-43 16 6 -27 c4 -14 9 -29
11 -33 2 -5 56 -8 119 -8 l114 0 0 -54 c0 -33 5 -58 13 -63 20 -13 221 -13
229 0 4 7 8 36 8 65 l0 52 125 0 125 0 0 -61 c0 -70 16 -111 34 -88 14 18 36
23 36 8 0 -7 10 -9 25 -7 14 3 25 1 25 -3 0 -5 5 -9 10 -9 6 0 10 11 10 25 0
34 37 65 77 65 31 0 33 2 33 35 l0 35 125 0 125 0 0 -47 c0 -60 9 -95 22 -87
5 4 56 6 113 5 116 -2 115 -3 115 80 l0 49 125 0 124 0 3 -62 3 -63 114 -3
c131 -4 131 -4 131 76 l0 52 125 0 125 0 0 -52 c0 -79 2 -80 116 -77 55 2 105
0 111 -4 14 -9 23 24 23 86 l0 47 125 0 125 0 0 -67 c0 -36 3 -63 6 -60 4 3
15 0 25 -7 15 -10 33 -11 77 -4 31 5 74 8 94 6 42 -4 48 5 48 85 l0 47 125 0
125 0 0 -49 c0 -83 -3 -81 125 -81 128 0 125 -2 125 81 l0 49 125 0 124 0 3
-62 3 -63 114 -3 c130 -4 131 -4 131 75 l0 52 123 3 122 3 5 120 5 120 113 3
c77 2 114 6 117 15 9 25 13 74 14 154 l1 81 40 7 c37 6 52 19 31 27 -8 3 -3
33 26 158 3 14 11 28 17 33 19 12 -16 27 -66 27 l-48 0 0 125 0 125 64 0 c81
0 133 10 114 21 -10 7 -10 9 0 9 6 0 12 11 12 24 0 43 24 128 37 133 9 4 10
10 2 24 -7 14 -6 19 3 20 40 3 -49 17 -114 18 l-76 1 -21 -87z m-1647 -1222
c10 -15 -22 -20 -34 -5 -10 11 -9 14 8 14 12 0 23 -4 26 -9z"/>
<path d="M3285 4738 c2 -7 13 -56 25 -108 31 -141 24 -130 85 -130 46 0 55 3
60 21 4 12 3 24 -1 28 -5 3 -10 15 -12 26 -2 11 -9 38 -17 60 -7 22 -15 54
-16 70 -5 36 -19 43 -81 44 -34 1 -46 -3 -43 -11z"/>
<path d="M3500 4276 c0 -8 4 -17 9 -21 6 -3 9 4 8 15 -1 23 -17 28 -17 6z"/>
<path d="M3424 4203 c13 -27 36 -59 50 -72 l26 -24 0 57 c0 53 -2 57 -20 51
-25 -8 -27 10 -2 24 13 8 7 10 -31 11 l-47 0 24 -47z"/>
<path d="M7759 3750 c0 -3 -2 -13 -4 -22 -4 -20 10 -24 21 -7 3 6 1 16 -5 22
-6 6 -11 9 -12 7z"/>
<path d="M7790 3730 c0 -12 27 -12 55 0 16 7 13 9 -17 9 -21 1 -38 -3 -38 -9z"/>
<path d="M4435 3630 c-8 -14 22 -50 42 -50 25 0 12 54 -14 58 -11 2 -24 -2
-28 -8z"/>
<path d="M3707 3479 c7 -7 15 -10 18 -7 3 3 -2 9 -12 12 -14 6 -15 5 -6 -5z"/>
<path d="M3541 3275 c15 -15 32 -26 38 -24 5 2 -6 15 -27 28 l-37 23 26 -27z"/>
<path d="M7752 3148 l3 -103 35 -3 c56 -6 129 40 130 81 0 10 4 16 9 12 5 -3
13 0 17 6 4 8 3 9 -4 5 -7 -4 -12 -4 -12 1 0 4 -3 19 -7 32 -4 17 -3 22 6 17
6 -4 8 -12 5 -18 -5 -7 -2 -8 5 -4 16 10 -16 48 -33 39 -6 -3 -8 -3 -4 2 19
20 -17 35 -84 35 l-69 0 3 -102z"/>
<path d="M3751 3155 c2 -35 10 -55 29 -74 14 -15 28 -26 32 -24 4 2 9 -1 13
-7 10 -16 25 -12 19 5 -4 8 1 26 9 39 13 19 24 23 64 23 28 1 55 -5 65 -14 15
-13 16 -10 16 36 l1 51 -78 0 c-43 0 -99 3 -125 6 l-48 7 3 -48z"/>
<path d="M4250 3128 c0 -35 4 -68 8 -75 5 -7 47 -13 119 -15 128 -3 123 -8
123 95 l0 57 -125 0 -125 0 0 -62z"/>
<path d="M4750 3133 c0 -82 8 -105 30 -93 9 5 19 7 21 5 3 -2 44 -5 92 -6 55
-1 87 -6 88 -13 3 -32 17 48 18 102 l1 62 -125 0 -125 0 0 -57z"/>
<path d="M5252 3115 c2 -46 9 -79 17 -87 11 -11 13 -11 6 0 -6 11 14 13 104
10 126 -3 121 -8 121 95 l0 57 -126 0 -126 0 4 -75z"/>
<path d="M5754 3108 c3 -46 5 -84 6 -85 0 -2 19 -2 43 -2 40 1 41 2 12 9 -22
6 -10 8 43 7 42 -1 72 2 72 8 0 6 4 5 8 -2 10 -16 45 -11 54 7 4 8 7 43 7 78
l1 62 -126 0 -126 0 6 -82z"/>
<path d="M6252 3115 c4 -80 17 -107 42 -86 10 8 44 11 105 9 103 -3 101 -6
101 95 l0 57 -126 0 -126 0 4 -75z"/>
<path d="M6750 3128 c0 -70 10 -94 35 -85 9 4 14 3 11 -1 -2 -4 39 -7 91 -6
70 0 97 4 104 15 5 8 9 42 9 77 l0 62 -125 0 -125 0 0 -62z"/>
<path d="M7250 3157 c0 -23 7 -40 22 -53 19 -15 20 -16 9 -1 -12 15 -10 17 20
17 26 0 30 -3 19 -10 -13 -8 -10 -15 16 -41 38 -38 58 -31 52 17 -3 22 1 35
10 39 7 2 11 1 8 -4 -3 -5 1 -12 10 -15 12 -5 15 -16 12 -46 -4 -44 11 -57 42
-38 21 14 29 42 29 105 0 24 3 47 6 53 4 6 -39 10 -124 10 l-131 0 0 -33z"/>
<path d="M3893 3104 c-8 -4 -9 -13 -2 -34 11 -31 30 -43 54 -34 19 8 19 24 -1
52 -15 22 -27 25 -51 16z"/>
<path d="M3955 3100 c3 -5 8 -10 11 -10 2 0 4 5 4 10 0 6 -5 10 -11 10 -5 0
-7 -4 -4 -10z"/>
<path d="M7250 3070 c0 -17 55 -58 65 -48 4 4 -53 68 -60 68 -3 0 -5 -9 -5
-20z"/>
<path d="M7225 2990 c-3 -5 -1 -10 4 -10 6 0 11 5 11 10 0 6 -2 10 -4 10 -3 0
-8 -4 -11 -10z"/>
<path d="M7020 2986 c0 -2 7 -7 16 -10 8 -3 12 -2 9 4 -6 10 -25 14 -25 6z"/>
<path d="M4527 2780 c9 -16 21 -30 25 -30 5 0 -1 14 -14 30 -12 17 -23 30 -25
30 -2 0 4 -13 14 -30z"/>
<path d="M6785 2731 l-40 -18 5 -104 c4 -91 7 -104 23 -107 40 -8 89 10 121
44 22 23 43 35 64 37 31 2 32 4 32 47 0 26 -6 52 -12 59 -11 10 -10 11 5 6 33
-13 18 21 -18 38 -46 22 -130 21 -180 -2z"/>
<path d="M7312 2698 c11 -29 22 -86 25 -125 l6 -73 51 0 c28 0 62 3 75 7 l23
6 -23 13 c-13 7 -18 13 -11 14 9 0 8 8 -5 33 -9 17 -16 35 -15 38 3 12 -119
139 -133 139 -10 0 -8 -13 7 -52z"/>
<path d="M3969 2680 c-32 -43 -49 -91 -49 -141 0 -39 0 -39 40 -39 l39 0 3
-67 c3 -57 6 -68 20 -67 10 1 16 -2 13 -6 -9 -14 36 -23 49 -10 8 8 7 10 -6 5
-12 -5 -16 -2 -13 12 2 10 7 39 10 65 5 28 12 45 18 41 5 -3 8 0 5 8 -3 9 -22
15 -51 17 l-46 3 -3 107 -3 107 -26 -35z"/>
<path d="M4250 2660 c0 -38 4 -52 18 -59 13 -7 22 -7 30 1 15 15 32 1 33 -30
1 -18 3 -21 6 -9 9 33 -52 147 -78 147 -5 0 -9 -22 -9 -50z"/>
<path d="M4586 2455 c-12 -75 -80 -198 -138 -249 -55 -48 -155 -106 -182 -106
-13 0 -16 -11 -16 -50 l0 -50 -97 -1 c-54 -1 -102 0 -108 1 -5 1 3 -12 19 -29
31 -32 48 -43 26 -16 -7 8 -8 15 -2 15 5 0 15 -7 22 -15 10 -12 16 -13 28 -3
13 11 15 10 10 -2 -5 -13 1 -15 30 -12 25 3 39 0 48 -13 11 -15 13 -11 19 29
l7 46 124 0 c117 0 124 -1 124 -20 0 -11 5 -20 11 -20 7 0 8 6 3 18 -5 9 -10
74 -12 145 l-3 127 81 0 c45 0 90 5 100 10 13 7 21 7 25 0 11 -18 26 -10 24
13 -1 12 1 29 5 38 4 9 6 54 4 100 l-3 84 -71 3 -72 3 -6 -46z"/>
<path d="M6670 2490 c0 -19 37 -84 59 -105 l22 -19 -3 64 -3 65 -37 3 c-23 2
-38 -1 -38 -8z"/>
<path d="M4103 2333 c9 -2 25 -2 35 0 9 3 1 5 -18 5 -19 0 -27 -2 -17 -5z"/>
<path d="M232 2301 c-7 -4 -24 -6 -37 -3 -19 3 -25 -1 -31 -23 -4 -14 -2 -31
3 -36 15 -15 94 -20 110 -8 18 15 16 44 -3 63 -18 18 -24 19 -42 7z m-22 -35
c0 -8 -4 -17 -9 -21 -12 -7 -24 12 -16 25 9 15 25 12 25 -4z m58 -3 c-2 -10
-10 -18 -18 -18 -8 0 -16 8 -18 18 -2 12 3 17 18 17 15 0 20 -5 18 -17z"/>
<path d="M7250 2132 l5 -127 30 3 c17 2 39 14 51 28 12 13 25 20 30 16 5 -4 6
-3 2 2 -4 5 8 26 27 48 19 21 35 46 35 56 0 14 2 15 10 2 7 -11 10 -7 10 17 0
21 7 37 21 46 11 8 17 17 12 19 -4 3 -57 6 -118 7 -60 2 -112 4 -115 6 -3 2
-3 -54 0 -123z"/>
<path d="M4758 2213 c7 -3 16 -2 19 1 4 3 -2 6 -13 5 -11 0 -14 -3 -6 -6z"/>
<path d="M176 2184 c-19 -18 -20 -28 -6 -55 19 -35 70 -17 70 26 1 17 3 16 16
-7 12 -24 34 -38 34 -23 0 18 -26 55 -47 64 -33 15 -49 14 -67 -5z m42 -26
c-2 -12 -9 -23 -15 -26 -19 -6 -29 28 -12 39 23 14 31 10 27 -13z"/>
<path d="M3926 2099 c33 -32 62 -58 67 -59 4 0 7 12 7 28 0 24 -9 31 -67 58
l-66 31 59 -58z"/>
<path d="M160 2056 c0 -24 5 -36 14 -36 8 0 20 -2 28 -5 8 -3 18 6 25 26 14
37 38 34 38 -4 -1 -16 5 -27 12 -27 18 0 17 55 -2 70 -21 18 -48 8 -63 -23
-14 -29 -32 -28 -32 3 0 10 -4 22 -10 25 -6 4 -10 -8 -10 -29z"/>
<path d="M6750 2054 c0 -30 18 -56 36 -53 5 1 55 1 112 0 l102 -1 1 -27 c1
-55 10 -63 51 -49 27 10 40 10 49 2 8 -8 13 -8 16 2 3 6 13 12 24 12 41 0 99
25 99 42 0 16 -12 18 -120 18 l-120 0 0 43 0 42 -125 0 -125 0 0 -31z"/>
<path d="M160 1955 c0 -25 5 -45 10 -45 6 0 10 14 10 30 0 34 1 35 38 16 40
-20 72 -29 72 -19 0 9 -103 63 -120 63 -6 0 -10 -20 -10 -45z"/>
<path d="M4607 1993 c-4 -3 -7 -11 -7 -17 0 -6 5 -5 12 2 6 6 9 14 7 17 -3 3
-9 2 -12 -2z"/>
<path d="M160 1866 c0 -20 3 -36 8 -36 4 0 17 -3 28 -6 17 -5 24 1 33 26 13
38 36 35 36 -3 -1 -15 3 -27 7 -27 16 0 21 31 9 56 -14 31 -51 29 -66 -3 -12
-28 -35 -30 -35 -4 0 11 -4 23 -10 26 -6 4 -10 -8 -10 -29z"/>
<path d="M178 1789 c-39 -22 -6 -79 46 -79 62 0 88 44 44 74 -26 18 -65 20
-90 5z m90 -24 c9 -8 -20 -35 -38 -35 -43 0 -69 30 -37 44 13 5 67 -1 75 -9z"/>
<path d="M160 1672 c0 -5 7 -17 15 -28 14 -18 14 -18 15 0 0 17 5 18 50 12 41
-6 50 -4 50 9 0 12 -13 15 -65 15 -36 0 -65 -4 -65 -8z"/>
<path d="M160 1602 c0 -5 7 -17 15 -28 14 -18 14 -18 15 -1 0 15 7 18 38 16
51 -3 62 -1 62 11 0 6 -28 10 -65 10 -36 0 -65 -4 -65 -8z"/>
<path d="M270 1529 c0 -19 -1 -19 -22 -5 -35 25 -76 21 -84 -8 -6 -25 1 -46
15 -46 4 0 7 10 7 23 -1 32 34 34 64 2 32 -34 40 -32 40 15 0 22 -4 40 -10 40
-5 0 -10 -9 -10 -21z"/>
<path d="M190 1450 c0 -5 -8 -7 -17 -4 -17 5 -17 5 0 -9 9 -8 17 -17 17 -20 0
-3 -8 -8 -17 -10 -17 -4 -17 -5 0 -6 9 0 17 -6 17 -12 0 -6 7 -8 17 -5 9 4 19
2 23 -4 4 -7 15 -7 30 -2 19 7 21 10 7 15 -23 9 -22 28 1 20 13 -5 12 -1 -5
15 -13 13 -29 19 -37 16 -9 -3 -16 -1 -16 5 0 6 -4 11 -10 11 -5 0 -10 -4 -10
-10z m40 -40 c0 -5 -4 -10 -10 -10 -5 0 -10 5 -10 10 0 6 5 10 10 10 6 0 10
-4 10 -10z"/>
<path d="M135 1280 c3 -6 48 -10 101 -10 56 0 94 4 94 10 0 6 -40 10 -101 10
-64 0 -98 -4 -94 -10z"/>
<path d="M260 1190 c-23 -17 -26 -17 -42 -3 -10 9 -21 13 -26 9 -4 -4 4 -16
17 -27 l23 -19 -46 0 c-34 0 -46 -4 -46 -15 0 -12 15 -15 75 -15 60 0 75 3 75
15 0 9 -9 15 -21 15 -21 0 -21 0 1 18 32 26 22 46 -10 22z"/>
<path d="M190 1081 c0 -41 59 -68 88 -39 13 13 17 58 4 58 -4 0 -12 -10 -17
-22 -6 -13 -19 -23 -30 -23 -13 0 -21 8 -23 23 -4 27 -22 30 -22 3z"/>
<path d="M208 999 c-21 -12 -24 -49 -6 -67 19 -19 66 -15 78 7 14 27 13 37 -6
55 -18 18 -41 20 -66 5z m57 -34 c0 -22 -31 -33 -47 -17 -17 17 -1 44 24 40
15 -2 23 -10 23 -23z"/>
<path d="M190 900 c0 -5 -7 -10 -15 -10 -21 0 -19 -13 4 -27 26 -16 104 5 109
30 2 9 -1 17 -7 17 -6 0 -11 -4 -11 -10 0 -5 -13 -10 -30 -10 -16 0 -30 5 -30
10 0 6 -4 10 -10 10 -5 0 -10 -4 -10 -10z"/>
<path d="M157 833 c-11 -11 -8 -48 5 -61 20 -20 46 -13 68 18 24 34 44 30 37
-6 -2 -13 0 -24 5 -24 16 0 21 31 10 56 -16 34 -49 31 -70 -6 -19 -33 -37 -34
-37 -2 -1 24 -9 35 -18 25z"/>
<path d="M200 675 c-21 -25 3 -65 38 -65 15 0 33 5 40 12 15 15 16 54 2 63 -6
3 -10 -5 -10 -19 0 -14 -4 -28 -10 -31 -6 -4 -10 7 -10 24 0 24 -4 31 -19 31
-10 0 -24 -7 -31 -15z m30 -26 c0 -11 -4 -17 -10 -14 -5 3 -10 13 -10 21 0 8
5 14 10 14 6 0 10 -9 10 -21z"/>
<path d="M197 560 c-8 -21 -18 -30 -34 -30 -14 0 -23 -6 -23 -15 0 -13 13 -15
73 -13 67 3 72 5 75 26 5 30 -24 62 -55 62 -18 0 -28 -8 -36 -30z m61 -2 c19
-19 14 -28 -18 -28 -18 0 -30 5 -30 13 0 28 27 36 48 15z"/>
<path d="M202 468 c-15 -15 -15 -51 0 -66 19 -19 66 -15 78 7 14 27 13 37 -6
55 -18 19 -55 21 -72 4z m63 -33 c0 -13 -8 -21 -23 -23 -26 -4 -42 25 -21 39
22 14 44 6 44 -16z"/>
<path d="M140 356 c0 -10 8 -16 23 -16 16 0 26 -9 34 -31 10 -27 16 -30 45
-27 25 2 35 9 42 31 14 39 -2 50 -79 55 -55 4 -65 2 -65 -12z m130 -31 c0 -21
-27 -30 -45 -15 -23 19 -18 30 15 30 20 0 30 -5 30 -15z"/>
<path d="M220 246 c-36 -12 -66 -29 -68 -37 -2 -9 17 -20 55 -32 32 -10 64
-20 71 -23 6 -3 12 1 12 10 0 9 -8 16 -20 16 -15 0 -20 7 -20 26 0 17 6 28 20
31 11 3 20 12 20 19 0 8 -1 14 -2 14 -2 -1 -32 -11 -68 -24z m8 -51 c-7 -7
-48 7 -48 15 0 15 45 16 48 2 2 -8 2 -15 0 -17z"/>
</g>
</svg>
