<?xml version="1.0" standalone="no"?>
<!DOCTYPE svg PUBLIC "-//W3C//DTD SVG 20010904//EN"
 "http://www.w3.org/TR/2001/REC-SVG-20010904/DTD/svg10.dtd">
<svg version="1.0" xmlns="http://www.w3.org/2000/svg"
 width="25.000000pt" height="25.000000pt" viewBox="0 0 25.000000 25.000000"
 preserveAspectRatio="xMidYMid meet">

<g transform="translate(0.000000,25.000000) scale(0.100000,-0.100000)"
fill="#000000" stroke="none">
<path d="M0 230 c0 -16 7 -20 30 -20 23 0 30 -4 30 -20 0 -17 7 -20 44 -20 40
0 44 2 49 30 9 41 53 53 79 20 l18 -22 0 26 0 26 -125 0 c-118 0 -125 -1 -125
-20z"/>
<path d="M0 100 l0 -100 125 0 125 0 0 92 c0 83 -1 90 -14 72 -8 -11 -18 -36
-23 -55 l-9 -34 -72 -3 c-66 -3 -90 -13 -59 -25 7 -3 5 -6 -5 -6 -20 -1 -24
19 -6 37 9 9 8 25 -1 67 -11 48 -15 55 -37 55 -24 0 -24 -1 -24 -100z m143
-57 c-7 -2 -19 -2 -25 0 -7 3 -2 5 12 5 14 0 19 -2 13 -5z m37 -7 c0 -3 -4 -8
-10 -11 -5 -3 -10 -1 -10 4 0 6 5 11 10 11 6 0 10 -2 10 -4z"/>
<path d="M72 143 c5 -26 38 -29 38 -4 0 15 -6 21 -21 21 -14 0 -19 -5 -17 -17z"/>
<path d="M120 140 c0 -13 7 -20 20 -20 13 0 20 7 20 20 0 13 -7 20 -20 20 -13
0 -20 -7 -20 -20z"/>
<path d="M170 134 c0 -8 9 -14 20 -14 11 0 20 4 20 9 0 5 -9 11 -20 14 -13 3
-20 0 -20 -9z"/>
<path d="M80 96 c0 -10 16 -14 60 -15 47 0 60 3 60 14 0 12 -14 15 -60 15 -45
0 -60 -4 -60 -14z"/>
</g>
</svg>
