<?xml version="1.0" standalone="no"?>
<!DOCTYPE svg PUBLIC "-//W3C//DTD SVG 20010904//EN"
 "http://www.w3.org/TR/2001/REC-SVG-20010904/DTD/svg10.dtd">
<svg version="1.0" xmlns="http://www.w3.org/2000/svg"
 width="1080.000000pt" height="1080.000000pt" viewBox="0 0 1080.000000 1080.000000"
 preserveAspectRatio="xMidYMid meet">

<g transform="translate(0.000000,1080.000000) scale(0.100000,-0.100000)"
fill="#000000" stroke="none">
<path d="M5281 8900 c-75 -20 -151 -60 -208 -110 -17 -16 -105 -108 -194 -207
-89 -98 -210 -230 -269 -293 -58 -63 -211 -232 -340 -375 -129 -142 -314 -345
-410 -450 -415 -454 -628 -692 -673 -754 -58 -79 -127 -219 -156 -316 -52
-175 -51 -152 -51 -1544 0 -1478 -6 -1366 84 -1456 94 -94 -147 -86 2376 -83
l2225 3 47 27 c25 16 63 47 83 70 69 82 66 0 62 1464 l-3 1319 -22 85 c-30
113 -55 179 -105 275 -66 127 -85 150 -521 635 -77 85 -165 183 -195 216 -31
34 -139 155 -241 269 -804 900 -1016 1129 -1076 1165 -127 75 -277 97 -413 60z
m340 -765 c72 -49 213 -196 238 -248 49 -101 64 -213 35 -255 -33 -47 -105
-21 -185 67 -50 55 -73 64 -207 80 -46 6 -87 13 -93 16 -5 4 -14 3 -20 0 -6
-4 38 -40 99 -80 127 -86 162 -124 301 -332 140 -211 218 -305 498 -606 40
-43 149 -172 242 -286 94 -114 222 -263 286 -332 98 -104 124 -139 160 -214
26 -52 49 -117 55 -155 7 -45 10 -353 8 -978 l-3 -914 -32 -28 c-61 -55 -109
-61 -431 -58 l-290 3 -44 30 c-61 43 -122 139 -160 253 -30 91 -32 106 -31
227 2 288 90 436 375 632 76 52 138 101 138 108 0 19 -101 48 -185 53 -160 9
-320 -94 -458 -297 -48 -70 -52 -74 -55 -48 -2 15 1 48 6 72 11 54 -5 62 -35
18 -48 -70 -73 -180 -80 -353 -10 -217 16 -302 155 -513 112 -170 106 -181
-106 -191 -254 -11 -342 6 -377 73 -11 23 -15 200 -20 1057 -3 566 -10 1063
-15 1104 -38 307 -54 393 -93 469 -40 82 -118 161 -302 310 -77 63 -164 137
-192 164 -29 28 -53 47 -53 41 0 -24 80 -227 97 -246 10 -12 41 -36 68 -54 92
-61 121 -98 111 -138 -10 -42 -66 -59 -170 -54 -125 7 -208 45 -358 165 -73
59 -89 89 -109 197 -22 116 10 194 138 348 27 31 77 114 113 184 104 205 205
323 356 417 23 14 88 78 145 142 148 167 183 185 335 182 94 -2 104 -4 145
-32z m-1363 -1560 c11 -14 37 -67 57 -118 20 -50 41 -97 46 -104 6 -6 31 -21
56 -33 25 -12 74 -40 110 -62 71 -45 63 -44 196 -5 52 16 90 22 115 18 35 -6
37 -9 40 -46 5 -54 -54 -167 -129 -249 -33 -35 -59 -71 -59 -81 0 -9 -16 -66
-36 -126 -33 -99 -36 -118 -30 -177 7 -84 31 -133 177 -367 62 -99 150 -259
196 -355 181 -375 177 -361 178 -685 0 -269 -5 -303 -51 -346 -24 -23 -34 -24
-163 -27 -124 -3 -142 -2 -179 17 -57 29 -102 87 -140 180 -38 93 -73 147
-156 245 -65 77 -112 167 -122 234 -8 57 10 170 41 245 13 33 55 112 94 176
84 137 111 209 111 288 -1 109 -54 179 -157 209 -136 40 -338 -41 -318 -126
13 -54 63 -65 123 -25 47 31 106 40 160 26 47 -13 62 -34 62 -84 0 -52 -22
-104 -89 -215 -108 -177 -145 -276 -157 -417 -12 -132 38 -259 156 -400 83
-97 120 -174 120 -246 0 -43 -5 -55 -30 -80 l-30 -30 -222 3 c-209 3 -226 4
-265 25 -23 13 -54 39 -70 60 l-28 36 -3 821 c-2 701 0 830 12 886 9 36 20
127 25 203 10 131 30 238 53 282 6 11 37 59 68 107 47 71 59 97 64 145 13 104
83 223 131 223 13 0 32 -11 43 -25z"/>
<path d="M5422 2875 c-179 -50 -291 -254 -253 -460 23 -124 93 -220 199 -272
78 -38 202 -44 283 -14 54 21 149 92 149 112 0 12 -83 139 -91 139 -4 0 -30
-16 -59 -35 -44 -30 -60 -35 -109 -35 -103 0 -160 61 -168 178 -4 57 -1 74 19
112 58 108 168 121 284 34 30 -22 33 -22 47 -6 8 9 29 43 47 75 30 54 31 59
17 81 -52 78 -242 126 -365 91z"/>
<path d="M4787 2873 c-4 -4 -112 -7 -240 -7 l-232 -1 -6 -50 c-4 -27 -10 -67
-14 -88 l-7 -38 92 7 93 7 -6 -286 c-5 -248 -3 -286 10 -291 23 -9 176 -7 192
3 11 7 13 50 11 227 -2 121 -3 248 -2 284 l2 65 86 -3 87 -4 -6 39 c-4 21 -7
62 -7 91 0 48 -2 52 -23 52 -13 0 -27 -3 -30 -7z"/>
<path d="M3017 2863 c-2 -4 -2 -171 1 -370 l5 -362 71 -6 c39 -4 87 -5 106 -3
l35 3 -4 86 -3 87 113 -1 c129 -1 166 11 222 66 53 54 70 100 75 203 4 77 1
98 -18 142 -12 29 -40 68 -61 87 -71 64 -91 68 -325 73 -117 2 -214 0 -217 -5z
m362 -177 c33 -18 51 -54 51 -106 0 -82 -41 -120 -129 -120 -82 0 -81 -2 -81
119 0 59 3 111 7 114 12 13 124 7 152 -7z"/>
<path d="M3724 2501 l0 -368 125 -7 c69 -3 185 -6 257 -6 l132 0 11 63 c6 35
11 78 11 95 l0 32 -144 -6 c-139 -7 -144 -6 -165 15 -16 16 -21 32 -19 59 l3
37 137 -1 137 -1 5 41 c3 23 8 64 11 91 l5 51 -142 -1 -142 0 -10 26 c-5 14
-6 39 -2 54 l7 28 151 -6 151 -7 -6 79 c-3 44 -8 84 -12 90 -4 7 -89 11 -253
11 l-247 0 -1 -369z"/>
<path d="M5868 2503 c3 -253 8 -370 16 -375 6 -4 120 -8 252 -8 l241 0 7 38
c3 20 6 61 6 91 l0 54 -157 -4 -158 -4 3 288 2 287 -109 0 -109 0 6 -367z"/>
<path d="M6456 2588 c6 -349 7 -360 45 -403 49 -56 103 -70 259 -70 148 1 206
13 259 52 59 46 63 67 72 393 4 162 5 298 2 303 -2 4 -51 7 -109 7 l-104 0 0
-268 c0 -254 -1 -269 -20 -290 -41 -43 -155 -37 -182 11 -10 16 -13 91 -13
282 l0 260 -107 3 -107 3 5 -283z"/>
<path d="M7195 2501 l0 -371 42 -6 c22 -3 121 -4 220 -2 206 5 252 17 307 78
39 43 56 93 56 160 0 55 -30 123 -64 145 l-25 16 35 46 c29 38 34 52 34 101 0
86 -28 135 -98 169 -56 28 -59 28 -282 31 l-225 4 0 -371z m375 199 c26 -26
26 -62 -1 -86 -15 -13 -40 -20 -88 -22 l-68 -4 -6 30 c-3 16 -3 46 0 66 l6 36
68 0 c56 0 73 -4 89 -20z m-25 -270 c45 -10 65 -32 65 -71 0 -47 -40 -69 -126
-69 l-74 0 0 69 c0 58 3 70 18 74 30 8 75 7 117 -3z"/>
</g>
</svg>
